<?xml version="1.0" standalone="no"?>
<!DOCTYPE svg PUBLIC "-//W3C//DTD SVG 20010904//EN"
 "http://www.w3.org/TR/2001/REC-SVG-20010904/DTD/svg10.dtd">
<svg version="1.0" xmlns="http://www.w3.org/2000/svg"
 width="147.000000pt" height="70.000000pt" viewBox="0 0 147.000000 70.000000"
 preserveAspectRatio="xMidYMid meet">

<g transform="translate(0.000000,70.000000) scale(0.100000,-0.100000)"
fill="#000000" stroke="none">
<path d="M629 617 c-65 -40 -239 -171 -234 -175 2 -3 60 36 129 87 68 50 130
93 138 96 7 2 28 1 47 -3 l35 -8 -120 -88 c-65 -49 -112 -87 -103 -83 10 3 69
44 132 91 64 47 119 86 122 86 4 0 63 -41 132 -91 68 -50 126 -89 128 -87 5 5
-215 167 -252 187 -37 19 -114 13 -154 -12z"/>
<path d="M689 508 c-89 -62 -83 -57 -77 -63 3 -3 26 11 51 30 25 19 49 35 53
35 4 0 29 -16 56 -36 28 -19 52 -33 54 -31 3 3 -18 21 -46 41 -49 35 -57 56
-23 56 9 0 48 -23 86 -51 38 -27 71 -48 74 -46 2 3 -27 26 -64 52 -37 27 -73
52 -79 57 -7 5 -40 -12 -85 -44z"/>
<path d="M241 348 c1 -29 4 -43 6 -30 6 28 26 28 47 0 16 -23 16 -23 6 -1 -7
14 -7 24 0 28 16 10 12 42 -6 49 -44 17 -54 8 -53 -46z m57 20 c3 -13 -3 -18
-22 -18 -20 0 -26 5 -26 21 0 15 5 20 22 17 13 -2 24 -11 26 -20z"/>
<path d="M791 348 c1 -29 4 -43 6 -30 2 12 10 22 17 22 8 0 21 -10 30 -22 16
-23 16 -23 6 -1 -7 14 -7 24 0 28 16 10 12 42 -6 49 -44 17 -54 8 -53 -46z
m57 20 c3 -13 -3 -18 -22 -18 -20 0 -26 5 -26 21 0 15 5 20 22 17 13 -2 24
-11 26 -20z"/>
<path d="M465 373 c-4 -10 -8 -29 -9 -43 -1 -15 -7 -25 -16 -25 -19 0 -26 35
-8 47 10 8 10 9 -2 5 -20 -5 -25 -41 -7 -55 7 -6 23 -9 35 -5 18 4 22 12 22
49 0 48 -4 54 -15 27z"/>
<path d="M698 378 c-7 -16 2 -78 11 -78 7 0 7 78 -1 85 -3 3 -8 0 -10 -7z"/>
<path d="M546 361 c-3 -5 2 -8 12 -7 12 1 17 -6 16 -26 -1 -16 3 -28 7 -28 13
0 11 44 -3 58 -14 14 -25 15 -32 3z"/>
<path d="M1089 352 c4 -10 6 -24 3 -32 -6 -19 2 -11 16 16 10 18 8 23 -8 27
-16 4 -18 2 -11 -11z"/>
<path d="M374 332 c1 -18 -4 -27 -14 -27 -8 0 -14 6 -12 13 1 8 -2 11 -9 7
-17 -11 14 -37 34 -29 18 6 24 49 8 58 -4 3 -8 -7 -7 -22z"/>
<path d="M502 330 c0 -19 2 -27 5 -17 2 9 2 25 0 35 -3 9 -5 1 -5 -18z"/>
<path d="M611 328 c2 -28 2 -29 6 -8 3 14 10 28 17 32 7 5 5 8 -6 8 -14 0 -18
-8 -17 -32z"/>
<path d="M658 330 c2 -16 6 -30 8 -30 2 0 4 14 4 30 0 17 -4 30 -8 30 -5 0 -7
-13 -4 -30z"/>
<path d="M883 344 c-14 -38 37 -71 56 -35 12 21 5 51 -11 51 -7 0 -6 -5 1 -14
15 -18 3 -48 -18 -44 -20 4 -27 38 -9 49 10 7 10 9 0 9 -7 0 -15 -7 -19 -16z"/>
<path d="M966 344 c-7 -20 10 -54 28 -54 34 0 48 59 16 67 -12 4 -12 3 -2 -5
18 -12 11 -46 -9 -50 -21 -4 -33 26 -18 44 7 9 8 14 1 14 -5 0 -13 -7 -16 -16z"/>
<path d="M1050 330 c0 -16 2 -30 4 -30 2 0 6 14 8 30 3 17 1 30 -4 30 -4 0 -8
-13 -8 -30z"/>
<path d="M1138 330 c2 -16 6 -30 8 -30 2 0 4 14 4 30 0 17 -4 30 -8 30 -5 0
-7 -13 -4 -30z"/>
<path d="M1175 351 c-3 -5 -2 -12 3 -15 5 -3 9 1 9 9 0 17 -3 19 -12 6z"/>
<path d="M536 321 c-3 -5 2 -15 12 -22 15 -12 16 -12 5 2 -7 9 -10 19 -6 22 3
4 4 7 0 7 -3 0 -8 -4 -11 -9z"/>
<path d="M1207 313 c5 -13 2 -15 -17 -10 -16 4 -20 3 -12 -5 14 -14 42 -3 42
17 0 8 -4 15 -10 15 -5 0 -7 -7 -3 -17z"/>
<path d="M410 244 c0 -5 59 -51 131 -102 129 -90 133 -92 188 -92 56 0 60 2
187 91 139 99 147 105 123 97 -9 -4 -71 -45 -138 -93 -115 -83 -124 -87 -159
-80 -20 3 -49 8 -63 9 -22 2 -105 56 -236 154 -18 13 -33 20 -33 16z"/>
<path d="M634 228 c77 -61 79 -63 64 -76 -12 -9 -29 -2 -87 39 -40 28 -75 49
-77 46 -3 -3 29 -29 71 -57 l77 -52 79 53 c44 30 75 55 69 57 -5 2 -30 -13
-55 -33 l-45 -37 -47 34 c-58 41 -90 58 -49 26z"/>
<path d="M895 231 c-3 -5 -48 -40 -100 -77 -52 -37 -93 -69 -91 -71 4 -4 216
146 216 153 0 8 -19 4 -25 -5z"/>
</g>
</svg>
